<?xml version="1.0" encoding="UTF-8" standalone="no"?>
<svg xmlns:ffdec="https://www.free-decompiler.com/flash" xmlns:xlink="http://www.w3.org/1999/xlink" ffdec:objectType="shape" height="48.0px" width="48.0px" xmlns="http://www.w3.org/2000/svg">
  <g transform="matrix(1.0, 0.0, 0.0, 1.0, 24.0, 24.0)">
    <path d="M-24.0 -24.0 L24.0 -24.0 24.0 24.0 -24.0 24.0 -24.0 -24.0" fill="#ffffff" fill-opacity="0.0" fill-rule="evenodd" stroke="none"/>
    <path d="M0.35 -14.4 L1.2 -14.4 1.6 -14.4 Q7.2 -14.25 11.1 -10.35 15.3 -6.15 15.3 -0.3 15.3 5.25 11.65 9.15 11.4 9.3 11.1 9.6 L8.75 11.55 8.75 14.3 19.05 17.6 22.0 24.0 -20.0 24.0 -16.95 17.6 -6.75 14.3 -6.75 11.55 -9.15 9.6 -9.7 9.15 Q-13.3 5.25 -13.3 -0.3 -13.3 -6.15 -9.15 -10.35 -5.25 -14.25 0.35 -14.4" fill="#666666" fill-rule="evenodd" stroke="none"/>
    <path d="M5.65 -5.95 Q7.1 -4.75 7.1 -2.6 7.1 -1.3 6.55 -0.25 5.95 0.8 4.4 2.05 3.2 3.1 2.9 3.65 2.6 4.25 2.6 4.9 2.6 5.55 2.9 6.1 L-0.25 6.1 -0.55 4.55 Q-0.55 2.55 1.35 1.0 L2.9 -0.65 Q3.3 -1.3 3.3 -2.05 3.3 -2.9 2.75 -3.45 2.15 -3.95 1.2 -3.95 -0.95 -3.95 -2.8 -2.3 L-2.8 -5.95 Q-0.85 -7.1 1.65 -7.1 4.2 -7.1 5.65 -5.95 M1.65 11.65 Q0.55 11.65 -0.1 11.05 -0.75 10.45 -0.75 9.6 -0.75 8.75 -0.1 8.2 0.6 7.6 1.5 7.6 2.4 7.6 3.05 8.2 3.7 8.75 3.7 9.6 3.7 10.45 3.1 11.05 2.5 11.65 1.65 11.65" fill="#ffffff" fill-rule="evenodd" stroke="none"/>
  </g>
</svg>
