<?xml version="1.0" encoding="UTF-8" standalone="no"?>
<svg xmlns:ffdec="https://www.free-decompiler.com/flash" xmlns:xlink="http://www.w3.org/1999/xlink" ffdec:objectType="shape" height="48.0px" width="48.0px" xmlns="http://www.w3.org/2000/svg">
  <g transform="matrix(1.0, 0.0, 0.0, 1.0, 24.0, 24.0)">
    <path d="M-24.0 -24.0 L24.0 -24.0 24.0 24.0 -24.0 24.0 -24.0 -24.0" fill="#999999" fill-opacity="0.0" fill-rule="evenodd" stroke="none"/>
    <path d="M8.25 -3.3 L7.85 0.9 Q7.85 3.9 9.35 5.4 10.8 7.0 10.8 7.55 10.8 9.85 8.95 9.85 8.35 9.85 7.25 9.05 L5.8 8.25 Q5.35 8.25 5.0 8.75 L2.35 9.05 Q-2.9 9.05 -4.7 2.4 -5.55 -0.9 -5.4 -4.3 -5.4 -7.7 -3.5 -6.9 -1.55 -6.05 -1.4 -2.25 -1.85 0.5 -1.75 2.1 -1.55 5.35 1.95 5.35 3.75 5.35 3.9 -0.35 4.15 -6.05 6.05 -6.05 8.2 -6.05 8.25 -3.3 M14.25 -1.55 Q14.1 -0.75 14.1 2.55 L14.1 4.8 Q14.25 6.5 15.0 6.5 17.35 6.5 17.6 2.35 L18.05 -3.85 Q15.05 -3.85 14.25 -1.55 M20.2 -1.85 Q20.2 0.35 20.75 5.4 L21.2 12.6 Q21.2 15.05 20.45 16.25 18.55 18.7 12.7 18.7 9.75 18.7 9.15 17.8 L8.95 16.8 Q8.95 15.3 13.8 14.6 18.55 13.95 18.55 12.5 L18.35 9.35 17.75 10.0 15.55 10.15 Q12.05 10.15 11.4 6.5 11.05 4.7 11.4 2.8 11.4 -7.8 16.15 -8.4 18.0 -8.65 19.5 -7.4 21.0 -6.2 21.0 -4.8 L20.6 -3.45 20.2 -1.85 M-21.7 -16.8 Q-21.7 -18.35 -20.0 -18.55 -18.35 -18.6 -17.1 -16.8 L-16.45 -11.95 -16.45 -6.6 -16.15 -6.85 -12.05 -7.15 Q-6.2 -6.2 -6.2 0.35 -6.2 3.3 -8.0 6.1 -10.95 10.55 -17.25 10.55 -18.75 10.55 -19.3 9.7 -20.2 9.35 -20.2 8.35 L-20.2 -12.7 -21.05 -14.9 Q-21.7 -16.1 -21.7 -16.8 M-15.35 -2.7 L-16.45 -2.8 -16.45 -2.7 -16.45 3.75 -16.7 6.5 -14.65 5.5 Q-9.85 3.35 -9.85 0.05 -9.85 -2.15 -10.3 -2.5 L-15.35 -2.7" fill="#999999" fill-rule="evenodd" stroke="none"/>
  </g>
</svg>
