<?xml version="1.0" encoding="UTF-8" standalone="no"?>
<svg xmlns:ffdec="https://www.free-decompiler.com/flash" xmlns:xlink="http://www.w3.org/1999/xlink" ffdec:objectType="shape" height="40.0px" width="130.0px" xmlns="http://www.w3.org/2000/svg">
  <g transform="matrix(1.0, 0.0, 0.0, 1.0, 65.0, 20.0)">
    <path d="M65.0 -20.0 L65.0 20.0 -65.0 20.0 -65.0 -20.0 65.0 -20.0" fill="#ffffff" fill-opacity="0.0" fill-rule="evenodd" stroke="none"/>
    <path d="M8.45 -2.75 L13.1 -2.45 Q13.9 -2.15 13.85 -1.6 13.85 -1.15 8.0 -0.3 L7.9 0.05 Q9.15 0.65 11.05 2.05 14.0 4.2 16.9 7.1 L16.65 7.9 Q16.3 8.45 15.7 8.45 L10.4 4.75 7.3 2.65 Q5.65 8.45 3.35 8.45 2.15 8.45 1.85 7.85 1.7 7.7 1.7 7.25 1.7 6.85 3.2 5.0 4.5 3.0 5.3 0.05 L1.7 0.5 Q0.7 0.5 0.4 -0.1 L0.3 -0.7 Q0.3 -2.5 5.85 -2.6 L6.05 -3.8 6.35 -6.2 Q6.45 -8.25 7.75 -8.65 8.95 -8.95 8.95 -7.3 L8.45 -2.75 M22.6 -8.8 Q23.65 -8.85 24.45 -7.7 L24.85 -4.65 24.85 -1.25 25.05 -1.4 27.65 -1.6 Q31.35 -1.0 31.35 3.15 31.35 5.0 30.2 6.8 28.35 9.6 24.35 9.6 23.4 9.6 23.05 9.05 22.5 8.85 22.5 8.2 L22.5 -5.1 21.95 -6.5 21.55 -7.7 Q21.55 -8.7 22.6 -8.8 M50.15 -1.75 Q51.45 -1.0 51.45 -0.1 L51.15 0.75 50.75 1.75 Q50.75 3.15 51.25 6.35 L51.7 10.9 Q51.7 12.45 50.95 13.2 49.3 14.75 44.2 14.75 41.65 14.75 41.05 14.2 L40.95 13.55 Q40.95 12.6 45.15 12.15 49.35 11.75 49.35 10.85 L49.15 8.85 48.65 9.25 46.65 9.35 Q43.6 9.35 43.05 7.05 42.7 5.9 43.05 4.7 43.05 -2.0 47.25 -2.4 48.8 -2.55 50.15 -1.75 M60.1 -4.2 L60.8 4.75 60.8 6.35 Q60.6 7.5 59.65 7.5 59.05 7.5 58.25 0.4 57.55 -5.75 57.55 -6.9 57.55 -8.1 58.5 -9.55 59.5 -11.05 59.85 -8.65 L60.1 -4.2 M59.8 8.3 Q61.5 8.4 61.5 10.0 61.5 11.25 59.95 11.25 59.0 11.25 58.4 10.3 L58.0 9.35 Q58.0 8.15 59.8 8.3 M45.6 1.95 Q45.4 2.45 45.4 4.55 L45.4 5.95 Q45.55 7.05 46.2 7.05 48.3 7.05 48.5 4.4 L48.9 0.5 Q46.25 0.5 45.6 1.95 M42.1 7.7 Q42.1 9.15 40.95 9.15 40.55 9.15 39.85 8.65 L38.95 8.15 Q38.65 8.15 38.45 8.45 L36.75 8.65 Q33.45 8.65 32.3 4.45 31.75 2.35 31.85 0.2 31.85 -1.95 33.05 -1.45 34.3 -0.9 34.4 1.5 34.1 3.25 34.15 4.25 34.3 6.3 36.5 6.3 37.65 6.3 37.75 2.7 37.9 -0.9 39.1 -0.9 40.45 -0.9 40.5 0.85 L40.25 3.5 Q40.25 5.4 41.2 6.35 42.1 7.35 42.1 7.7 M25.55 1.2 L24.85 1.15 24.85 1.2 24.85 5.3 24.7 7.05 26.0 6.4 Q29.05 5.05 29.05 2.95 29.05 1.55 28.75 1.35 L25.55 1.2 M-54.85 -6.3 L-57.8 -6.6 -56.7 -5.35 Q-54.55 -2.55 -53.8 -0.9 L-50.85 -0.9 -50.85 -1.45 -50.95 -6.5 -54.85 -6.3 M-51.1 -10.5 Q-51.1 -12.4 -49.95 -13.45 -48.75 -14.4 -48.75 -10.5 L-48.65 -9.1 Q-44.8 -9.5 -43.6 -8.3 -43.15 -7.85 -43.1 -7.2 L-43.15 -6.55 Q-43.15 -5.55 -45.1 -2.3 L-46.2 -0.7 -45.95 0.2 Q-45.95 1.4 -47.15 1.4 L-49.15 1.4 -49.35 2.25 -50.35 4.8 Q-49.05 5.9 -45.7 6.6 -42.0 7.4 -42.0 8.45 -42.0 9.6 -43.5 9.6 -45.75 9.6 -51.65 6.65 -53.45 8.45 -56.1 8.45 -57.55 8.45 -57.95 7.85 L-58.1 7.25 Q-58.1 6.7 -55.6 5.45 L-54.8 5.0 Q-59.05 2.75 -59.05 2.35 -59.05 0.5 -55.35 1.85 -53.65 2.45 -52.5 3.1 L-52.5 3.05 -51.7 1.4 -53.65 1.4 Q-53.95 1.9 -54.6 1.9 L-55.1 1.25 -55.45 0.75 -57.4 -2.1 -60.0 -5.8 Q-60.0 -8.45 -58.4 -7.2 L-58.35 -7.45 Q-58.35 -8.0 -57.6 -8.3 L-51.0 -8.9 -51.1 -10.5 M-48.6 -2.1 Q-46.8 -4.35 -45.5 -6.55 L-48.55 -6.5 -48.55 -4.35 -48.6 -2.1 M-34.5 -5.1 L-35.0 -9.1 Q-35.0 -10.65 -34.0 -10.75 -32.95 -10.85 -32.2 -8.3 -31.75 -5.85 -31.7 -3.7 L-31.7 -3.65 -28.75 -3.7 Q-24.0 -3.55 -24.0 -2.15 -24.0 -1.55 -24.6 -0.75 -25.35 0.25 -26.1 0.25 -27.3 0.25 -27.5 -0.15 L-27.5 -1.05 -31.55 -1.25 -31.25 5.55 -31.35 6.8 -31.6 7.25 -25.15 7.25 Q-23.9 7.25 -24.0 8.45 -24.0 9.65 -25.15 9.6 L-37.55 9.6 Q-38.7 9.65 -38.7 8.45 -38.65 7.25 -37.55 7.25 L-33.3 7.25 Q-34.3 6.65 -34.35 4.3 L-34.05 -0.8 Q-34.05 -2.5 -34.5 -5.1 M-16.8 -7.4 L-11.7 -8.45 -7.2 -8.55 -6.95 -8.9 -6.95 -11.9 -11.0 -11.0 -15.8 -10.25 Q-17.0 -10.25 -17.3 -10.9 L-17.45 -11.45 Q-14.25 -13.1 -11.0 -14.0 -4.6 -15.8 -4.6 -10.55 -4.6 -8.35 -5.55 -6.05 -6.65 -3.35 -8.75 -2.6 L-8.9 -2.4 Q-9.6 -1.6 -10.2 -1.6 -10.95 -1.6 -11.3 -2.2 L-15.95 -2.45 -16.05 -2.25 Q-16.35 -1.6 -17.0 -1.6 -18.5 -1.6 -18.8 -3.55 L-18.85 -6.05 Q-18.9 -7.2 -20.25 -10.5 -20.25 -14.2 -18.0 -10.05 L-16.8 -7.4 M-15.95 -4.65 L-15.8 -4.65 -10.15 -4.65 -8.6 -5.75 -9.6 -5.65 -9.5 -5.8 -13.15 -5.9 -16.25 -5.8 -15.95 -4.65 M-14.9 -0.2 L-6.0 -0.2 Q-4.95 -0.2 -4.85 0.95 -4.85 1.45 -5.4 1.85 -6.35 2.5 -8.45 2.3 L-10.95 2.3 Q-10.65 2.75 -10.45 3.5 -10.2 4.8 -10.2 7.1 L-10.2 9.15 Q-10.55 10.55 -12.25 10.55 L-13.25 10.45 -14.2 10.95 Q-17.95 13.1 -18.55 13.1 -19.8 13.1 -19.8 11.95 -19.8 11.15 -18.5 10.2 L-18.7 9.95 -18.85 9.35 -18.6 8.8 Q-18.35 8.55 -17.9 8.45 L-18.15 6.45 -18.4 3.25 -19.9 3.3 Q-21.85 3.3 -21.65 2.1 -21.65 1.35 -20.5 1.0 L-14.9 -0.05 -14.9 -0.2 M-3.45 5.85 Q-3.45 6.85 -4.25 8.25 L-2.4 9.4 Q-0.65 10.5 -0.65 11.6 L-0.85 12.45 Q-1.15 13.1 -1.8 13.1 -3.1 13.1 -6.05 10.05 L-7.3 10.3 Q-8.6 10.3 -8.95 9.75 L-9.05 9.15 Q-9.05 8.5 -8.0 7.95 L-10.2 5.65 Q-10.2 4.75 -9.65 4.55 L-9.2 3.85 Q-7.9 3.2 -3.9 3.85 -3.45 4.55 -3.45 5.85 M-6.35 6.0 L-5.95 6.35 -5.8 5.95 -6.35 6.0 M-13.4 2.3 L-14.65 2.3 -16.05 2.6 -15.85 4.7 -14.3 4.2 -13.15 4.05 -13.5 2.8 -13.4 2.3 M-15.8 8.05 Q-14.35 7.1 -13.3 7.35 L-12.85 7.5 -12.8 7.5 -12.6 7.25 -12.8 7.25 -15.8 7.15 -15.8 8.05" fill="#999999" fill-rule="evenodd" stroke="none"/>
  </g>
</svg>
